<?xml version="1.0" encoding="UTF-8"?><svg id="Layer_1" xmlns="http://www.w3.org/2000/svg" viewBox="0 0 2000 2000"><defs><style>.cls-1{fill:#2f13a8;}.cls-1,.cls-2,.cls-3,.cls-4,.cls-5,.cls-6{stroke-width:0px;}.cls-2{fill:#5e40dd;}.cls-3{fill:#160972;}.cls-4{fill:#065dcb;}.cls-5{fill:#b09aef;}.cls-6{fill:#826fe2;}</style></defs><path class="cls-2" d="M1493.6,1319.85v.03l-143.35,73.12-18.66,9.53-140.15-71.53h-.03l-118.42,60.44h-.03l-98.54,50.26c-28.36,14.47-61.95,14.47-90.31,0l-76.87-39.22-21.67-11.03,21.67-11.06,106.93-54.54,15.09-7.71,118.48-60.42-140.32-71.62,18.58-9.47,22.86-11.66,120.55-61.49,140.37,71.59,21.61,11.03,100.18,51.11,18.38,9.36,3.49,1.79,140.15,71.51Z"/><polygon class="cls-4" points="1493.94 1319.71 1493.63 1319.85 1493.6 1319.88 1493.6 1319.54 1493.94 1319.71"/><polygon class="cls-6" points="1231.4 739.61 1231.4 816.22 1331.58 867.34 1493.6 949.99 1493.6 1096.6 1491.3 1095.44 1428.59 1063.44 1331.58 1013.95 1252.17 973.45 1231.4 962.87 1231.4 1039.48 1331.58 1090.59 1353.48 1101.76 1493.6 1173.24 1493.6 1319.85 1353.45 1248.35 1349.96 1246.56 1331.58 1237.2 1231.4 1186.09 1209.79 1175.06 1069.42 1103.47 1069.42 510.35 1213.14 583.67 1231.4 592.97 1331.58 644.08 1493.6 726.73 1493.6 873.35 1331.58 790.7 1252.17 750.19 1231.4 739.61"/><polygon class="cls-4" points="1493.94 1319.71 1493.63 1319.85 1493.6 1319.85 1493.6 1319.54 1493.94 1319.71"/><polygon class="cls-4" points="1493.94 1319.71 1493.63 1319.85 1493.6 1319.88 1493.6 1319.54 1493.94 1319.71"/><path class="cls-5" d="M925.7,583.67l-18.27,9.3-100.18,51.11-57.51,29.34c-64.13,32.72-104.5,98.63-104.5,170.63v56.79c0,29.94,16.79,57.35,43.45,70.95l3.74,1.91c15.16,7.74,23.2,24.73,19.55,41.36l-66.74,304.49v.31l143.69-73.32,18.32-9.33,1.28-.65,39.78-182.66,59.13,29.47v102.73l18.58-9.47,22.86-11.66,120.55-61.49V510.35l-143.72,73.32ZM791.9,798.53l22.02-11.24,72.75-37.1"/><polygon class="cls-1" points="1493.6 873.3 1418.44 911.64 1231.4 816.22 1231.4 739.61 1493.6 873.3"/><polygon class="cls-1" points="1493.6 1096.59 1418.44 1134.93 1231.4 1039.51 1231.4 962.9 1493.6 1096.59"/><polygon class="cls-1" points="645.23 1319.85 785.58 1391.45 947.62 1308.56 969.3 1217.67 907.43 1186.09 907.43 1083.36 848.3 1053.89 807.25 1237.2 645.23 1319.85"/><polygon class="cls-3" points="1047.75 1257.71 947.62 1308.56 969.3 1217.67 1047.75 1257.71"/><polygon class="cls-3" points="807.25 1237.2 947.62 1308.56 785.58 1391.45 645.23 1319.85 807.25 1237.2"/><path class="cls-1" d="M791.9,832.54v-22.35c0-7.15,4.01-13.69,10.38-16.94l77.49-39.52c12.65-6.45,27.66,2.74,27.66,16.94v101.39c0,14.2-15,23.4-27.66,16.94l-77.49-39.51c-6.37-3.25-10.38-9.79-10.38-16.94Z"/></svg>